<?xml version="1.0" encoding="UTF-8" standalone="no"?><!DOCTYPE svg PUBLIC "-//W3C//DTD SVG 1.1//EN" "http://www.w3.org/Graphics/SVG/1.1/DTD/svg11.dtd"><svg width="100%" height="100%" viewBox="0 0 768 768" version="1.1" xmlns="http://www.w3.org/2000/svg" xmlns:xlink="http://www.w3.org/1999/xlink" xml:space="preserve" xmlns:serif="http://www.serif.com/" style="fill-rule:evenodd;clip-rule:evenodd;stroke-linejoin:round;stroke-miterlimit:2;"><g><circle cx="384" cy="384" r="364.589" style="fill:#0f4161;"/><g><g><g><path d="M251.091,544.684l-0.054,-0l132.352,115.976l124.324,-108.784c51.487,-38.005 84.907,-99.106 84.907,-167.95c0,-115.141 -93.479,-208.62 -208.62,-208.62c-115.141,0 -208.62,93.479 -208.62,208.62c0,64.655 29.476,122.48 75.711,160.758Z" style="fill:#f7cb14;"/><path d="M223.851,463.301c-0.011,-1.951 1.351,-0.628 39.696,-4.774c1.796,-0.194 -0.881,-2.76 -2.275,-5.407c-2.388,-4.534 -3.753,-2.986 -6.177,-3.464c-6.451,-1.272 -8.727,-2.475 -8.692,-27.27c0.007,-4.718 1.767,-4.327 2.061,-9.063c0.125,-2.019 0.21,-4.04 0.349,-6.057c0.273,-3.946 3.374,-6.127 3.604,-9.055c1.029,-13.066 -1.146,-17.414 21.852,-35.229c5.44,-4.214 3.97,-5.171 4.201,-8.256c0.543,-7.253 5.629,-3.921 10.939,-12.134c1.748,-2.704 14.62,-22.611 23.548,-32.643c9.338,-10.493 8.428,-16.622 62.952,-21.397c57.428,-5.029 57.689,-3.179 70.718,1.329c51.002,17.645 52.762,24.552 53.976,29.313c7.408,29.062 9.732,85.071 9.981,85.66c0.582,1.372 2.238,1.293 0.878,23.54c-0.263,4.306 -11.178,6.862 -10.917,10.885c0.157,2.421 28.101,0.61 30.54,0.452c0.201,-0.013 7.154,-0.464 2.277,1.074c-13.601,4.288 -129.054,47.58 -130.926,47.805c-1.234,0.148 -63.34,-8.991 -63.363,-8.995c-105.869,-16.056 -106.098,-14.469 -115.222,-16.316Zm279.51,-38.877c-0.355,0.094 -6.191,1.645 -2.43,3.889c2.205,1.315 9.05,-6.816 2.43,-3.889Zm-206.57,1.924c45.016,1.659 45.316,0.609 49.478,2.814c1.121,0.594 1.393,-0.346 0.482,-1.248c-5.605,-5.545 -6.848,-2.793 -45.738,-4.409c-2.988,-0.124 -35.342,-1.468 -37.373,-0.908c-1.625,0.448 -6.235,7.423 -0.541,3.044c0.907,-0.697 1.066,-0.336 33.692,0.706Zm105.227,-5.794l0.463,0.526c0.156,-0.189 6.614,-12.902 12.368,-0.35c1.486,3.241 1.984,6.261 3.608,10.71c1.868,1.275 0.512,-0.776 0.417,-1.191c-5.868,-25.653 -14.871,-18.107 -15.341,-16.375c-0.236,0.872 0.666,1.298 0.127,2.466c-0.984,2.135 -1.008,2.035 -1.641,4.213Zm-94.042,-80.196c-2.612,0.677 -1.949,1.458 -1.825,4.177c0.284,6.23 -7.573,5.975 -7.082,9.663c0.078,0.588 6.214,-0.093 6.751,-0.153c1.831,-0.203 1.267,-6.28 2.155,-13.687Zm-27.333,17.937c3.771,-0.163 3.011,-1.632 2.828,-5.348c-0,-0.008 2.872,-3.494 1.239,-2.983c-3.863,1.209 -4.046,7.59 -4.067,8.331Zm179.825,77.628c19.923,-2.958 21.052,-3.15 22.876,-3.461c4.51,-0.768 1.16,-22.833 9.177,-26.783c0.736,-0.363 5.915,0.71 2.778,-1.214c-9.557,-5.859 -10.009,23.558 -12.015,24.323c-2.136,0.815 -53.821,7.892 -58.507,8.533c-2.517,0.345 -1.834,4.279 0.043,4c17.892,-2.664 17.767,-2.747 35.647,-5.399Zm-157.533,-89.554c-1.495,3.066 2.779,-0.204 1.617,-1.14c-0.731,-0.589 -0.667,0.077 -1.617,1.14Zm-42.595,66.469c-0.02,0.092 -0.266,4.862 0.92,0.737c2.033,-1.588 4.74,-0.335 74.773,0.472c3.399,0.039 4.088,0.047 42.244,-4.555c10.613,-1.28 12.175,-15.923 14.497,-17.336c2.329,-1.417 45.829,-3.735 53.77,-4.065c3.132,-0.13 1.301,16.26 2.127,18.845c2.065,6.468 0.84,-17.871 0.938,-18.344c0.361,-1.751 53.287,-1.794 53.661,-1.663c0.684,0.238 1.086,5.409 1.123,5.887c1.885,24.24 1.252,-7.695 0.66,-9.051c-0.526,-1.206 -59.757,-1.464 -60.962,-0.685c-2.283,1.477 -2.501,1.557 -4.828,0.1c-1.468,-0.92 -38.766,0.92 -45.896,1.572c-1.527,0.14 -3.217,7.814 -3.98,9.927c-3.551,9.837 -6.022,9.097 -38.877,12.45c-5.948,0.607 -4.994,2.773 -8.378,3.94c-1.383,0.477 -32.832,-0.143 -35.686,-0.2c-40.997,-0.809 -42.089,-0.58 -43.279,-3.648c-1.496,-3.857 -8.262,-5.44 -9.066,-4.043c-4.294,7.452 2.528,5.501 6.239,9.661Zm156.091,42.746l0.275,-1.135c-0.217,-1.042 -0.324,0.084 -0.853,0.926c-3.015,4.508 -2.899,4.563 -3.256,4.867c-5.806,4.947 -9.323,-5.915 -11.374,-7.064c2.39,8.679 9.786,18.338 15.208,2.407Zm-135.952,6.104l0.657,0.146l1.192,-0.179l-0.032,-0.629c-1.472,-0.572 -5.352,-1.372 -7.909,-7.825c-1.723,-4.349 -3.151,-2.102 -3.08,-1.824c1.848,7.257 8.153,9.887 9.172,10.312Zm218.02,-24.22c-0.497,-0.634 -0.188,-1.569 -0.711,-0.906c-0.389,0.492 0.478,0.547 0.096,1.031c-1.556,4.229 -2.18,4.904 -2.496,5.245c-2.062,2.23 -2.356,-0.543 -5.443,-0.505c4.325,6.504 7.689,2.944 8.554,-4.865Zm-245.845,-19.859c-0.012,-0.014 -0.024,-0.027 -0.034,-0.039c-0.43,-0.513 -0.329,-1.434 -1.099,-0.585c-3.561,4.571 2.084,3.727 7.186,4.676l0.352,-0.493c-2.843,-2.414 -3.201,-1.675 -6.404,-3.559Zm148.357,34.951l0.878,-0.588c-1.49,-3.073 -0.894,0.505 -0.878,0.588Zm88.366,-36.849c0.244,-0.428 3.461,-6.08 5.926,-1.687c2.415,4.305 0.61,4.431 0.613,4.759l-0.257,-0.652c-0.656,-1.438 -1.335,-6.725 -4.725,-1.839l-1.021,2.445l-0.083,1.142l-0.348,3.109c-0.183,0.801 -1.269,5.559 -0.216,10.267c0.13,0.564 2.019,12.338 5.482,7.784c1.443,-1.897 0.95,-2.062 2.15,-8.375c0.024,-0.947 0.21,-0.825 0.236,-1.833c0.01,-0.386 -0.003,-0.357 -0.044,-4.821c4.165,-3.933 -1.61,-16.03 -3.406,-16.978c-4.184,-2.21 -5.116,6.172 -5.158,6.332c-0.087,0.675 0.06,0.6 0.427,1.184l0.423,-0.836Zm3.359,16.3c0.676,-2.937 3.308,4.001 1.336,7.153c-3.004,4.803 -1.417,-6.576 -1.336,-7.153Zm-0.975,-0.594c-0.321,0.604 -0.702,3.45 -1.746,1.254c0.004,-2.085 1.706,-3.388 1.746,-1.254Zm-124.308,-110.815c2.942,-0.185 13.954,-0.879 36.814,-1.623c3.054,-0.099 4.574,-0.332 3.624,2.557c-0.735,2.235 -5.827,17.721 -9.84,27.71c-1.989,4.952 -6.942,5.052 -4.029,5.461c4.217,0.592 7.234,-7.658 7.547,-8.513c9.686,-26.488 10.248,-27.007 8.544,-28.689c-2.495,-2.462 -64.701,2.421 -72.29,3.23c-26.306,2.806 -27.15,2.889 -30.244,7.393c-0.864,1.257 -10.392,15.127 -10.713,15.771c-4.225,8.47 9.314,-11.217 13.214,-15.709c2.595,-2.989 5.627,-3.619 57.373,-7.588Zm-43.517,32.065c3.303,-0.662 2.278,-1.841 2.469,-5.162c0.078,-1.353 0.65,-11.305 0.881,-16.92c0.195,-4.744 -10.411,-2.781 -11.736,-1.152c-5.861,7.207 -5.424,7.705 -6.169,22.902c-0.082,1.683 0.886,1.58 14.554,0.332Zm109.582,-44.801c9.628,-3.354 58.811,16.185 63.738,18.143c2.956,1.174 -1.113,-7.965 -1.397,-8.602c-1.383,-3.107 -2.712,-6.091 -37.924,-19.206c-11.529,-4.294 -22.689,-11.361 -32.26,6.035c-8.709,15.828 0.625,-9.291 6.462,-12.795c9.328,-5.6 -55.122,1.022 -59.89,1.512c-44.159,4.537 -45.019,6.158 -57.631,21.116c-1.992,2.362 -9.598,10.404 -5.202,7.933c7.88,-4.43 76.861,-9.059 101.509,-8.517c7.486,0.164 3.348,7.73 -5.226,32.886c-2.903,8.516 -1.468,11.71 -10.487,11.832c-90.828,1.233 -102.547,2.738 -109.341,2.73c-2.614,-0.003 13.298,-24.724 13.648,-26.121c0.495,-1.977 -1.627,-0.046 -14.245,21.123c-7.844,13.16 -15.517,11.19 -24.491,24.337c-2.504,3.668 -0.327,3.893 2.871,5.061c11.637,4.249 114.661,-0.929 116.874,-4.186c1.134,-1.67 9.353,-13.771 16.058,-19.465c6.979,-5.927 -14.815,17.806 -12.928,19.751c0.131,0.135 49.52,-1.246 53.825,-1.367c1.962,-0.055 1.599,-4.472 4.236,-4.497c1.096,-0.01 4.352,3.533 4.509,3.767c0.373,0.557 0.482,0.533 22.053,0.952c33.947,0.659 34.166,2.214 36.755,0.819c1.541,-0.83 -2.864,-40.062 -5.812,-50.557c-0.406,-1.447 -0.577,-2.055 -16.949,-8.102c-35.361,-13.06 -47.666,-12.583 -48.753,-14.581Zm-8.104,59.295c-9.676,-0.191 -15.582,0.816 -17.862,-4.064c-1.407,-3.012 1.543,-12.245 1.869,-13.266c9.601,-30.05 10.513,-35.381 17.803,-37.325c10.326,-2.753 48.475,10.468 60.38,15.068c9.191,3.551 10.669,3.486 12.157,13.276c4.502,29.615 2.981,31.106 0.517,30.897c-38.915,-3.289 -40.135,-3.204 -74.866,-4.587Zm70.934,-19.084c1.153,10.036 0.875,9.996 1.94,20.014c0.134,1.257 1.768,0.878 1.806,-0.685c0.06,-2.483 -2.255,-30.495 -4.113,-33.14c-2.632,-3.744 -52.175,-19.856 -53.181,-16.392c-1.039,3.577 1.588,2.049 9.128,3.883c21.903,5.327 22.321,5.688 22.655,7.569c1.779,10.022 5.55,60.004 3.949,23.612c-0.99,-22.502 -3.023,-24.169 -1.182,-23.705c0.509,0.128 15.599,5.45 16.898,6.796c1.159,1.201 1.892,10.237 2.1,12.048Zm-80.62,14.014c-2.215,-0.525 -2.334,-0.122 -4.165,-1.479c-0.072,-0.054 -1.175,-0.871 -1.109,0.184c0.285,4.556 11.793,3.45 5.274,1.295Zm0.171,-15.849c-0.199,4.202 0.497,4.444 -1.918,7.926c-2.58,3.719 4.306,-0.854 4.394,-1.17c1.343,-4.804 -2.829,-6.275 1.757,-19.934c2.935,-8.744 3.776,-17.469 16.115,-15.591c4.791,0.729 0.384,14.297 5.495,30.021c2.297,7.067 1.112,15.545 0.924,16.885c-0.199,1.426 3.016,1.783 2.804,-0.58c-0.258,-2.878 -3.405,-46.998 -5.681,-48.068c-0.301,-0.141 -8.2,-2.071 -12.446,0.025c-5.027,2.482 -5.243,5.325 -12.992,28.682c-0.276,0.695 -4.83,12.163 -2.26,9.071c0.352,-0.423 2.828,-7.285 3.047,-7.424c0.218,-0.139 0.541,0.295 0.759,0.156Zm21.191,8.231c-1.259,-3.174 -2.731,-1.995 -6.823,-2.351c-2.066,-0.18 -0.992,-1.187 -1.243,-4.617c-0.233,-3.187 1.284,-1.987 2.422,-2.052c6.048,0.632 6.645,1.564 7.403,9.174c1.811,0.185 2.291,0.357 0.03,0.476c-0.008,1.47 -1.158,1.276 -1.468,0.285c-0.024,-0.077 -0.048,-0.152 -0.072,-0.225c-1.289,0.038 -3.031,0.066 -5.308,0.082c-4.174,0.03 -19.349,-1.05 -16.244,3.102c0.762,1.018 29.309,-0.567 18.702,1.935c-2.006,0.473 -14.84,-1.423 -12.674,2.906c0.175,0.349 18.91,3.57 18.909,-3.602c-0.002,-15.67 -3.622,-16.418 -14.712,-16.008c-4.727,0.175 -4.846,2.187 -5.062,5.136c0.208,3.381 -1.405,4.828 1.418,4.95c0.416,0.018 9.632,0.416 14.722,0.81Zm0.248,0.689c0.613,-0.018 1.123,-0.038 1.54,-0.06c0.001,-0.108 -0.005,-0.225 -0.017,-0.351c-0.004,-0.042 -0.008,-0.083 -0.012,-0.124c-0.496,-0.051 -1.092,-0.102 -1.759,-0.154c0.083,0.21 0.166,0.439 0.248,0.689Zm50.362,79.913c0.258,-0.865 1.297,-1.236 0.364,-1.218l-0.364,1.218Zm-236.16,4.549c-1.285,-3.622 -2.039,4.964 4.154,5.875c16.626,2.445 134.897,6.991 137.568,5.053c2.832,-2.055 2.37,-18.928 0.481,-10.193c-1.526,7.059 -5.223,5.428 -21.476,4.935c-7.224,-0.219 -7.846,0.626 -15.531,-6.226c-0.244,-0.217 -11.81,-10.53 -3.748,-1.619c0.152,0.168 6.945,6.475 4.204,7.336c-0.706,0.222 -99.846,-2.685 -101.183,-4.529c-0.362,-0.499 1.609,-16.018 -0.633,-6.898c-1.144,4.653 0.567,8.145 -3.837,6.266Zm89.987,-31.547l0.416,-0.249c0.803,-5.157 0.801,-5.099 2.101,-10.161c2.149,-8.365 4.448,-6.603 8.323,-7.005c26.703,-2.768 26.635,-4.406 28.859,-3.717c3.749,1.161 -8.496,1.544 -6.454,3.973c2.343,2.788 2.663,2.3 2.844,2.546c1.009,1.369 -0.634,1.393 -21.051,2.93c-0.697,0.052 -7.42,0.559 -6.23,6.122c0.352,1.647 29.846,-2.071 31.568,-2.563c5.609,-1.604 6.302,-12.038 6.38,-13.209c0.377,-5.676 -22.68,3.204 -84.856,3.205c-41.7,0 -41.536,-2.14 -44.623,-3.4c-0.85,-0.347 -2.666,-0.418 -3.001,11.078c-0.08,2.755 7.99,4.591 8.413,4.746c1.367,0.498 0.785,7.229 2.17,3.6c0.585,-1.532 0.948,-1.139 2.621,-1.095c10.901,0.288 10.852,0.214 69.442,0.847c2.3,0.025 2.394,2.279 2.605,2.537c0.107,0.131 0.367,-0.314 0.474,-0.183Zm-77.111,-12.866c-0.506,4.143 -2.368,2.114 -6.175,0.398c-2.588,-1.166 0.897,-4.861 1.188,-5.17c0.379,-0.402 4.918,-4.895 4.988,4.772Zm25.121,6.856c-20.498,-0.404 -22.334,-0.172 -22.648,-1.452c-1.208,-4.925 1.867,-3.297 6.952,-3.177c40.486,0.961 54.431,0.144 65.833,-0.026c2.383,-0.036 0.544,4.045 0.4,4.364c-0.395,0.876 -0.739,0.875 -50.537,0.291Zm112.11,38.433c1.455,23.496 9.813,18.58 10.931,17.377c10.583,-11.389 1.391,-51.275 -8.032,-33.542c-2.691,5.064 -2.874,14.851 -2.899,16.165Zm7.1,6.098c0.746,-2.819 1.324,-2.524 1.507,-2.391c0.329,0.239 2.006,3.528 3.081,6.555c0.557,1.569 -2.028,6.681 -4.838,6.044c-3.558,-0.806 0.107,-9.674 0.25,-10.209Zm-5.08,-13.343c0.279,0.237 8.21,6.977 0.698,4.53c-2.491,-0.811 -0.757,-4.36 -0.698,-4.53Zm0.644,9.924c1.917,-0.281 3.189,-0.536 3.165,0.327c-0.011,0.404 -2.362,3.164 -2.39,3.204c-1.779,2.589 -3.326,-2.362 -0.775,-3.531Zm7.393,-9.351c0.965,-4.75 0.34,-10.528 1.992,-5.902c0.371,1.038 0.778,5.979 -1.992,5.902Zm-1.66,0.55c-1.627,0.88 -0.892,-0.862 -3.436,-4.079c-0.297,-0.375 -3.379,-4.272 0.102,-5.982c0.761,-0.374 0.662,0.237 3.335,10.061Zm3.045,1.704c0.095,-0.132 2.232,-3.121 2.023,0.188c-0.087,1.379 -4.227,3.156 -2.023,-0.188Zm-2.78,5.624c-0.842,-0.658 -0.549,-0.765 -0.554,-1.826c-0.226,-3.483 1.413,-0.699 1.429,-0.576c0.013,0.099 0,0 -0.198,1.235c3.053,2.166 6.759,1.522 3.931,3.971c-0.802,0.695 -1.553,-1.689 -4.607,-2.803Zm90.021,-27.95l0.501,0.131c0.04,-2.568 0.066,-3.219 0.712,-3.329c4.691,-0.802 6.063,1.778 6.064,-0.236c0,-0.258 -1.112,-4.183 -3.094,-4.101c-2.191,0.091 -4.112,2.223 -6.038,-3.163c-4.561,-12.756 -11.097,-8.02 -13.051,-0.541c-1.031,3.948 0.225,5.537 -3.853,6.032c-4.823,0.586 -59.098,7.177 -60.423,6.091c-0.378,-0.31 -7.054,-24.01 -20.318,-16.129c-7.195,4.275 -9.37,18.143 -12.221,18.629c-3.2,0.545 -36.082,2.388 -34.341,4.455c0.03,0.035 36.559,-2.029 39.738,-2.208c5.411,-0.306 4.963,-14.619 15.096,-15.032c10.674,-0.436 12.583,19.608 12.773,21.607l0.546,0.351c0.817,-0.517 0.442,-0.715 0.485,-5.175c0.016,-1.704 42.959,-5.413 61.038,-8.012c2.244,-0.323 2.184,-5.043 4.764,-8.921c7.319,-11.001 11.566,9.453 11.623,9.55Z" style="fill:#0f4161;"/></g></g></g></g></svg>