<?xml version="1.0" encoding="UTF-8" standalone="no"?><!DOCTYPE svg PUBLIC "-//W3C//DTD SVG 1.1//EN" "http://www.w3.org/Graphics/SVG/1.1/DTD/svg11.dtd"><svg width="100%" height="100%" viewBox="0 0 596 284" version="1.1" xmlns="http://www.w3.org/2000/svg" xmlns:xlink="http://www.w3.org/1999/xlink" xml:space="preserve" xmlns:serif="http://www.serif.com/" style="fill-rule:evenodd;clip-rule:evenodd;stroke-linejoin:round;stroke-miterlimit:2;"><g transform="matrix(216.29092,0,0,216.29092,564.540791,198.470526)"></g><text x="37.224px" y="198.471px" style="font-family:'Baloo-Regular', 'Baloo', cursive;font-size:216.291px;fill:#be0000;">T    tti</text><g transform="matrix(38.797201,0,0,38.797201,554.777763,243.408379)"></g><text x="40.404px" y="243.408px" style="font-family:'AkwePro-Black', 'Akwe Pro';font-weight:900;font-size:38.797px;fill:#0f4161;">S<tspan x="66.011px 97.242px 127px 154.313px 181.626px 206.418px 232.295px 247.892px 280.132px 311.442px 342.596px 358.192px 384.186px 415.03px 447.271px 475.787px 503.1px 528.978px " y="243.408px 243.408px 243.408px 243.408px 243.408px 243.408px 243.408px 243.408px 243.408px 243.408px 243.408px 243.408px 243.408px 243.408px 243.408px 243.408px 243.408px 243.408px ">HUTTLE AND CHARTER</tspan></text><ellipse cx="242.154" cy="187.556" rx="74.418" ry="14.159" style="fill:#0f4161;"/><path d="M198.385,149.363l-0.018,-0l43.586,38.193l40.942,-35.824c16.956,-12.516 27.961,-32.637 27.961,-55.309c0,-37.918 -30.784,-68.702 -68.702,-68.702c-37.918,0 -68.702,30.784 -68.702,68.702c0,21.292 9.707,40.335 24.933,52.94Z" style="fill:#0f4161;"/><g><circle cx="242.154" cy="96.792" r="59.975" style="fill:#f7cb14;"/><path d="M189.701,119.191c-0.004,-0.642 0.445,-0.207 13.073,-1.572c0.592,-0.064 -0.29,-0.909 -0.749,-1.78c-0.786,-1.493 -1.236,-0.983 -2.034,-1.141c-2.125,-0.419 -2.874,-0.815 -2.862,-8.981c0.002,-1.554 0.582,-1.425 0.679,-2.984c0.041,-0.665 0.069,-1.33 0.115,-1.995c0.09,-1.299 1.111,-2.018 1.187,-2.982c0.339,-4.303 -0.377,-5.735 7.196,-11.601c1.791,-1.388 1.307,-1.703 1.383,-2.719c0.179,-2.389 1.854,-1.291 3.602,-3.996c0.576,-0.89 4.815,-7.446 7.755,-10.75c3.075,-3.455 2.776,-5.474 20.731,-7.046c18.912,-1.656 18.998,-1.047 23.289,0.438c16.796,5.811 17.375,8.085 17.775,9.653c2.44,9.57 3.205,28.015 3.287,28.209c0.192,0.452 0.737,0.426 0.289,7.752c-0.087,1.418 -3.681,2.26 -3.595,3.585c0.052,0.797 9.254,0.201 10.057,0.149c0.066,-0.004 2.356,-0.153 0.75,0.354c-4.479,1.412 -42.5,15.669 -43.116,15.743c-0.406,0.049 -20.859,-2.961 -20.866,-2.962c-34.864,-5.288 -34.94,-4.765 -37.945,-5.373Zm92.047,-12.803c-0.117,0.031 -2.039,0.542 -0.8,1.281c0.726,0.433 2.98,-2.245 0.8,-1.281Zm-68.027,0.634c14.825,0.546 14.923,0.201 16.294,0.927c0.369,0.196 0.459,-0.114 0.159,-0.411c-1.846,-1.826 -2.255,-0.92 -15.062,-1.452c-0.984,-0.041 -11.639,-0.484 -12.307,-0.299c-0.535,0.148 -2.053,2.444 -0.178,1.002c0.299,-0.23 0.351,-0.111 11.095,0.233Zm34.653,-1.908l0.152,0.173c0.051,-0.062 2.178,-4.249 4.073,-0.115c0.489,1.067 0.653,2.062 1.188,3.527c0.615,0.42 0.169,-0.256 0.137,-0.392c-1.933,-8.448 -4.897,-5.963 -5.052,-5.392c-0.078,0.287 0.219,0.427 0.042,0.812c-0.324,0.703 -0.332,0.67 -0.541,1.387Zm-30.97,-26.41c-0.86,0.223 -0.642,0.48 -0.601,1.376c0.094,2.052 -2.494,1.968 -2.332,3.182c0.026,0.194 2.047,-0.031 2.223,-0.05c0.603,-0.067 0.417,-2.068 0.71,-4.507Zm-9.001,5.907c1.242,-0.054 0.992,-0.537 0.931,-1.761c-0,-0.003 0.946,-1.151 0.408,-0.982c-1.272,0.398 -1.332,2.499 -1.339,2.744Zm59.219,25.564c6.561,-0.974 6.933,-1.037 7.534,-1.14c1.485,-0.253 0.382,-7.519 3.022,-8.82c0.242,-0.119 1.948,0.234 0.915,-0.4c-3.147,-1.93 -3.296,7.758 -3.957,8.01c-0.703,0.268 -17.724,2.599 -19.267,2.81c-0.829,0.113 -0.604,1.409 0.014,1.317c5.892,-0.877 5.851,-0.905 11.739,-1.778Zm-51.878,-29.492c-0.492,1.01 0.915,-0.067 0.532,-0.375c-0.241,-0.194 -0.22,0.025 -0.532,0.375Zm-14.027,21.889c-0.007,0.03 -0.087,1.601 0.303,0.243c0.669,-0.523 1.561,-0.11 24.624,0.155c1.119,0.013 1.346,0.015 13.912,-1.5c3.495,-0.422 4.009,-5.244 4.774,-5.709c0.767,-0.467 15.092,-1.23 17.707,-1.339c1.032,-0.043 0.429,5.355 0.7,6.206c0.68,2.13 0.277,-5.885 0.309,-6.041c0.119,-0.577 17.548,-0.591 17.671,-0.548c0.225,0.079 0.358,1.781 0.37,1.939c0.621,7.983 0.412,-2.534 0.217,-2.981c-0.173,-0.397 -19.679,-0.482 -20.076,-0.226c-0.752,0.486 -0.824,0.513 -1.59,0.033c-0.484,-0.303 -12.766,0.303 -15.114,0.518c-0.503,0.046 -1.059,2.573 -1.311,3.269c-1.17,3.239 -1.983,2.996 -12.803,4.1c-1.959,0.2 -1.645,0.913 -2.759,1.298c-0.455,0.157 -10.812,-0.047 -11.752,-0.066c-13.501,-0.266 -13.861,-0.191 -14.253,-1.201c-0.493,-1.27 -2.721,-1.791 -2.986,-1.332c-1.414,2.454 0.833,1.812 2.054,3.182Zm51.403,14.077l0.091,-0.374c-0.072,-0.343 -0.107,0.028 -0.281,0.305c-0.993,1.485 -0.955,1.503 -1.072,1.603c-1.912,1.629 -3.07,-1.948 -3.746,-2.326c0.787,2.858 3.223,6.039 5.008,0.793Zm-44.771,2.01l0.216,0.048l0.393,-0.059l-0.011,-0.207c-0.485,-0.188 -1.762,-0.452 -2.605,-2.577c-0.568,-1.432 -1.038,-0.692 -1.014,-0.601c0.609,2.39 2.685,3.256 3.021,3.396Zm71.798,-7.976c-0.164,-0.209 -0.062,-0.517 -0.234,-0.298c-0.128,0.162 0.157,0.18 0.031,0.339c-0.513,1.393 -0.718,1.615 -0.822,1.727c-0.679,0.734 -0.776,-0.179 -1.792,-0.166c1.424,2.142 2.532,0.969 2.817,-1.602Zm-80.961,-6.54c-0.004,-0.004 -0.008,-0.009 -0.011,-0.013c-0.141,-0.169 -0.108,-0.472 -0.362,-0.193c-1.173,1.505 0.686,1.227 2.366,1.54l0.116,-0.162c-0.936,-0.795 -1.054,-0.552 -2.109,-1.172Zm48.857,11.51l0.289,-0.194c-0.491,-1.012 -0.294,0.166 -0.289,0.194Zm29.1,-12.135c0.08,-0.141 1.14,-2.002 1.951,-0.555c0.795,1.418 0.201,1.459 0.202,1.567l-0.085,-0.215c-0.216,-0.473 -0.44,-2.215 -1.556,-0.606l-0.336,0.805l-0.027,0.376l-0.115,1.024c-0.06,0.264 -0.418,1.831 -0.071,3.381c0.043,0.186 0.665,4.063 1.805,2.563c0.475,-0.625 0.313,-0.679 0.708,-2.758c0.008,-0.312 0.069,-0.272 0.078,-0.604c0.003,-0.127 -0.001,-0.118 -0.015,-1.588c1.372,-1.295 -0.53,-5.279 -1.122,-5.591c-1.378,-0.728 -1.685,2.032 -1.699,2.085c-0.029,0.222 0.02,0.198 0.141,0.39l0.139,-0.275Zm1.106,5.368c0.223,-0.967 1.089,1.318 0.44,2.356c-0.989,1.582 -0.467,-2.166 -0.44,-2.356Zm-0.321,-0.196c-0.106,0.199 -0.231,1.136 -0.575,0.413c0.001,-0.687 0.562,-1.116 0.575,-0.413Zm-40.937,-36.493c0.969,-0.061 4.595,-0.289 12.123,-0.534c1.006,-0.033 1.506,-0.109 1.194,0.842c-0.242,0.736 -1.919,5.836 -3.24,9.125c-0.655,1.631 -2.286,1.664 -1.327,1.799c1.389,0.195 2.382,-2.522 2.485,-2.804c3.19,-8.723 3.375,-8.894 2.814,-9.448c-0.822,-0.811 -21.307,0.797 -23.806,1.064c-8.663,0.924 -8.941,0.952 -9.96,2.434c-0.284,0.414 -3.422,4.981 -3.528,5.194c-1.391,2.789 3.067,-3.694 4.352,-5.173c0.855,-0.984 1.853,-1.192 18.894,-2.499Zm-14.331,10.559c1.088,-0.218 0.75,-0.606 0.813,-1.7c0.026,-0.446 0.214,-3.723 0.29,-5.572c0.064,-1.562 -3.428,-0.916 -3.865,-0.379c-1.93,2.373 -1.786,2.537 -2.031,7.542c-0.027,0.554 0.292,0.52 4.793,0.109Zm36.087,-14.754c3.171,-1.105 19.367,5.33 20.99,5.975c0.973,0.387 -0.367,-2.623 -0.46,-2.833c-0.455,-1.023 -0.893,-2.006 -12.489,-6.325c-3.797,-1.414 -7.472,-3.741 -10.624,1.987c-2.868,5.212 0.206,-3.06 2.128,-4.214c3.072,-1.844 -18.153,0.337 -19.723,0.498c-14.542,1.494 -14.825,2.028 -18.979,6.954c-0.656,0.778 -3.161,3.426 -1.713,2.613c2.595,-1.459 25.312,-2.983 33.429,-2.805c2.465,0.054 1.103,2.546 -1.721,10.83c-0.956,2.805 -0.483,3.856 -3.454,3.897c-29.911,0.406 -33.77,0.902 -36.008,0.899c-0.861,-0.001 4.379,-8.142 4.495,-8.602c0.163,-0.651 -0.536,-0.015 -4.691,6.956c-2.583,4.334 -5.11,3.685 -8.065,8.015c-0.825,1.208 -0.108,1.282 0.945,1.667c3.832,1.399 37.76,-0.306 38.489,-1.379c0.374,-0.55 3.08,-4.535 5.288,-6.41c2.298,-1.952 -4.879,5.864 -4.257,6.504c0.043,0.044 16.308,-0.41 17.726,-0.45c0.646,-0.018 0.526,-1.473 1.395,-1.481c0.361,-0.003 1.433,1.163 1.485,1.24c0.123,0.183 0.159,0.176 7.262,0.313c11.179,0.217 11.251,0.729 12.104,0.27c0.507,-0.273 -0.943,-13.193 -1.914,-16.649c-0.134,-0.476 -0.19,-0.677 -5.582,-2.668c-11.645,-4.301 -15.697,-4.144 -16.055,-4.802Zm-2.669,19.527c-3.186,-0.063 -5.132,0.269 -5.882,-1.338c-0.463,-0.992 0.508,-4.032 0.616,-4.369c3.162,-9.896 3.462,-11.652 5.863,-12.292c3.401,-0.907 15.964,3.447 19.884,4.962c3.027,1.169 3.513,1.148 4.004,4.372c1.483,9.753 0.982,10.244 0.17,10.175c-12.815,-1.083 -13.217,-1.055 -24.655,-1.511Zm23.36,-6.285c0.38,3.305 0.288,3.292 0.639,6.591c0.044,0.414 0.582,0.289 0.595,-0.226c0.02,-0.818 -0.742,-10.043 -1.355,-10.914c-0.867,-1.233 -17.182,-6.539 -17.513,-5.398c-0.342,1.178 0.523,0.675 3.006,1.279c7.213,1.754 7.351,1.873 7.461,2.493c0.586,3.3 1.828,19.76 1.3,7.776c-0.326,-7.41 -0.996,-7.959 -0.389,-7.806c0.168,0.042 5.137,1.795 5.565,2.238c0.382,0.395 0.623,3.371 0.692,3.967Zm-26.55,4.615c-0.729,-0.173 -0.769,-0.04 -1.372,-0.487c-0.024,-0.018 -0.387,-0.287 -0.365,0.061c0.094,1.5 3.884,1.136 1.737,0.426Zm0.056,-5.219c-0.066,1.384 0.164,1.464 -0.632,2.61c-0.85,1.225 1.418,-0.281 1.447,-0.385c0.442,-1.582 -0.932,-2.067 0.579,-6.565c0.967,-2.879 1.243,-5.753 5.307,-5.134c1.578,0.24 0.126,4.708 1.81,9.887c0.757,2.327 0.366,5.119 0.304,5.56c-0.066,0.469 0.993,0.587 0.924,-0.191c-0.085,-0.948 -1.121,-15.477 -1.871,-15.829c-0.099,-0.047 -2.7,-0.682 -4.099,0.008c-1.656,0.817 -1.727,1.754 -4.278,9.446c-0.091,0.229 -1.59,4.005 -0.744,2.987c0.116,-0.139 0.931,-2.399 1.004,-2.445c0.072,-0.046 0.178,0.097 0.25,0.052Zm6.978,2.71c-0.415,-1.045 -0.899,-0.657 -2.247,-0.774c-0.68,-0.059 -0.327,-0.391 -0.409,-1.52c-0.077,-1.049 0.423,-0.654 0.798,-0.676c1.992,0.208 2.188,0.515 2.438,3.021c0.596,0.061 0.755,0.118 0.01,0.157c-0.003,0.484 -0.381,0.42 -0.484,0.094c-0.008,-0.025 -0.016,-0.05 -0.024,-0.074c-0.425,0.012 -0.998,0.022 -1.748,0.027c-1.375,0.01 -6.372,-0.346 -5.349,1.021c0.251,0.335 9.652,-0.187 6.159,0.637c-0.66,0.156 -4.887,-0.469 -4.174,0.957c0.058,0.115 6.227,1.176 6.227,-1.186c-0.001,-5.161 -1.193,-5.407 -4.845,-5.272c-1.557,0.058 -1.596,0.72 -1.667,1.691c0.068,1.113 -0.463,1.59 0.467,1.63c0.137,0.006 3.172,0.137 4.848,0.267Zm0.082,0.227c0.202,-0.006 0.37,-0.012 0.507,-0.02c0,-0.036 -0.002,-0.074 -0.006,-0.116c-0.001,-0.014 -0.003,-0.027 -0.004,-0.041c-0.163,-0.017 -0.36,-0.034 -0.579,-0.051c0.027,0.069 0.055,0.145 0.082,0.227Zm16.585,26.317c0.085,-0.285 0.427,-0.407 0.12,-0.401l-0.12,0.401Zm-77.771,1.498c-0.423,-1.193 -0.671,1.635 1.368,1.935c5.475,0.805 44.424,2.302 45.304,1.664c0.933,-0.677 0.78,-6.233 0.158,-3.357c-0.503,2.325 -1.72,1.788 -7.072,1.625c-2.379,-0.072 -2.584,0.206 -5.115,-2.05c-0.08,-0.072 -3.889,-3.468 -1.234,-0.533c0.05,0.055 2.287,2.132 1.384,2.416c-0.232,0.073 -32.881,-0.884 -33.321,-1.492c-0.119,-0.164 0.53,-5.275 -0.209,-2.272c-0.377,1.532 0.187,2.682 -1.263,2.063Zm29.634,-10.389l0.137,-0.082c0.264,-1.698 0.264,-1.679 0.692,-3.346c0.708,-2.755 1.465,-2.175 2.741,-2.307c8.794,-0.912 8.771,-1.451 9.504,-1.224c1.235,0.382 -2.798,0.509 -2.125,1.308c0.772,0.918 0.877,0.757 0.937,0.838c0.332,0.451 -0.209,0.459 -6.933,0.965c-0.229,0.017 -2.444,0.184 -2.052,2.016c0.116,0.542 9.829,-0.682 10.396,-0.844c1.847,-0.528 2.075,-3.964 2.101,-4.35c0.124,-1.869 -7.469,1.055 -27.944,1.055c-13.733,0 -13.678,-0.705 -14.695,-1.12c-0.28,-0.114 -0.878,-0.138 -0.988,3.648c-0.026,0.907 2.631,1.512 2.771,1.563c0.45,0.164 0.258,2.381 0.715,1.185c0.193,-0.504 0.312,-0.375 0.863,-0.361c3.59,0.095 3.574,0.07 22.868,0.279c0.757,0.008 0.788,0.751 0.858,0.835c0.035,0.043 0.121,-0.103 0.156,-0.06Zm-25.394,-4.237c-0.166,1.364 -0.78,0.696 -2.034,0.131c-0.852,-0.384 0.295,-1.601 0.391,-1.703c0.125,-0.132 1.619,-1.612 1.642,1.571Zm8.273,2.258c-6.75,-0.133 -7.355,-0.056 -7.458,-0.478c-0.398,-1.622 0.615,-1.086 2.289,-1.046c13.333,0.316 17.925,0.048 21.68,-0.009c0.785,-0.012 0.179,1.332 0.132,1.437c-0.13,0.289 -0.243,0.288 -16.643,0.096Zm36.92,12.657c0.479,7.738 3.231,6.119 3.6,5.723c3.485,-3.751 0.458,-16.886 -2.645,-11.046c-0.886,1.668 -0.947,4.891 -0.955,5.323Zm2.338,2.008c0.246,-0.928 0.436,-0.831 0.496,-0.787c0.108,0.079 0.661,1.162 1.015,2.159c0.183,0.517 -0.668,2.2 -1.593,1.99c-1.172,-0.266 0.035,-3.186 0.082,-3.362Zm-1.673,-4.394c0.092,0.078 2.704,2.298 0.23,1.492c-0.82,-0.267 -0.249,-1.436 -0.23,-1.492Zm0.212,3.268c0.631,-0.092 1.05,-0.176 1.042,0.108c-0.004,0.133 -0.778,1.042 -0.787,1.055c-0.586,0.853 -1.095,-0.778 -0.255,-1.163Zm2.435,-3.079c0.318,-1.564 0.112,-3.467 0.656,-1.943c0.122,0.342 0.256,1.969 -0.656,1.943Zm-0.547,0.181c-0.536,0.29 -0.294,-0.284 -1.132,-1.343c-0.098,-0.124 -1.113,-1.407 0.034,-1.97c0.251,-0.123 0.218,0.078 1.098,3.313Zm1.003,0.561c0.031,-0.044 0.735,-1.028 0.666,0.062c-0.029,0.454 -1.392,1.039 -0.666,-0.062Zm-0.916,1.852c-0.277,-0.217 -0.181,-0.252 -0.182,-0.601c-0.074,-1.147 0.465,-0.23 0.471,-0.19c0.004,0.033 0,0 -0.065,0.407c1.006,0.713 2.226,0.501 1.294,1.308c-0.264,0.229 -0.511,-0.556 -1.517,-0.923Zm29.646,-9.204l0.165,0.043c0.013,-0.846 0.022,-1.06 0.235,-1.096c1.545,-0.264 1.997,0.585 1.997,-0.078c0,-0.085 -0.366,-1.378 -1.019,-1.35c-0.721,0.03 -1.354,0.732 -1.988,-1.041c-1.502,-4.201 -3.654,-2.641 -4.298,-0.178c-0.34,1.3 0.074,1.823 -1.269,1.986c-1.588,0.193 -19.462,2.363 -19.898,2.006c-0.125,-0.102 -2.323,-7.907 -6.691,-5.311c-2.37,1.408 -3.086,5.975 -4.025,6.135c-1.054,0.18 -11.882,0.786 -11.309,1.467c0.01,0.012 12.039,-0.668 13.086,-0.727c1.782,-0.101 1.635,-4.814 4.971,-4.95c3.515,-0.143 4.144,6.457 4.206,7.116l0.18,0.116c0.269,-0.17 0.146,-0.236 0.16,-1.704c0.005,-0.561 14.147,-1.783 20.101,-2.639c0.739,-0.106 0.719,-1.661 1.569,-2.938c2.41,-3.623 3.809,3.113 3.828,3.145Z" style="fill:#0f4161;"/></g></svg>