<?xml version="1.0" encoding="UTF-8" standalone="no"?><!DOCTYPE svg PUBLIC "-//W3C//DTD SVG 1.1//EN" "http://www.w3.org/Graphics/SVG/1.1/DTD/svg11.dtd"><svg width="100%" height="100%" viewBox="0 0 3200 3200" version="1.1" xmlns="http://www.w3.org/2000/svg" xmlns:xlink="http://www.w3.org/1999/xlink" xml:space="preserve" xmlns:serif="http://www.serif.com/" style="fill-rule:evenodd;clip-rule:evenodd;stroke-linejoin:round;stroke-miterlimit:2;"><g><rect x="-0" y="-0" width="3200" height="3200" style="fill:#a62625;"/><g><path d="M1600,1283.533l66.916,126.29l140.788,24.615l-99.431,102.667l20.095,141.504l-128.368,-62.839l-128.368,62.839l20.095,-141.504l-99.431,-102.667l140.788,-24.615l66.916,-126.29Z" style="fill:#d9cb8a;"/><path d="M1158.109,2021.25c-153.72,-127.267 -251.719,-319.52 -251.719,-534.481c0,-382.813 310.796,-693.609 693.609,-693.609c382.813,0 693.609,310.796 693.609,693.609c0,228.892 -111.112,432.037 -282.295,558.393l-413.346,361.678l-440.037,-385.591l0.178,0.001Zm441.891,-881.285c-191.407,0 -346.805,155.398 -346.805,346.805c0,191.407 155.398,346.805 346.805,346.805c191.407,0 346.805,-155.398 346.805,-346.805c0,-191.407 -155.398,-346.805 -346.805,-346.805Z" style="fill:#d9cb8a;"/></g></g></svg>